<svg version="1.0" xmlns="http://www.w3.org/2000/svg"
 width="388.000000pt" height="142.000000pt" viewBox="0 0 388.000000 142.000000"
 preserveAspectRatio="xMidYMid meet">

<g transform="translate(0.000000,142.000000) scale(0.100000,-0.100000)"
fill="#000000" stroke="none">
<path d="M1240 700 c0 -589 2 -670 15 -670 13 0 15 81 15 670 0 589 -2 670
-15 670 -13 0 -15 -81 -15 -670z"/>
<path d="M622 1153 c-112 -56 -240 -186 -300 -303 -34 -68 -38 -108 -14 -139
l19 -23 26 45 c56 95 196 216 328 282 30 15 55 29 57 30 5 4 -50 135 -57 135
-3 -1 -30 -13 -59 -27z"/>
<path d="M1767 1023 c-4 -3 -7 -69 -7 -145 0 -207 15 -232 145 -244 63 -6 111
17 137 66 15 29 18 58 18 177 l0 143 -45 0 -45 0 0 -144 c0 -158 -6 -176 -58
-176 -53 0 -57 9 -60 142 -3 157 -5 164 -43 177 -38 13 -34 13 -42 4z"/>
<path d="M3433 1022 c-40 -6 -45 -24 -41 -151 1 -66 0 -117 -4 -113 -4 4 -31
63 -60 132 l-54 125 -52 3 -52 3 0 -193 0 -194 28 2 c15 1 33 2 41 3 11 1 13
26 9 136 -2 74 -4 135 -3 135 1 0 28 -60 60 -134 54 -125 60 -134 87 -138 17
-3 41 -3 54 0 l24 4 0 189 c0 103 -3 189 -7 191 -5 2 -18 2 -30 0z"/>
<path d="M3657 1016 c-51 -19 -76 -43 -99 -94 -23 -52 -26 -145 -5 -194 19
-44 68 -85 113 -94 37 -7 137 0 167 12 14 5 17 21 17 94 0 58 -4 91 -13 98 -6
6 -39 12 -71 13 -64 3 -73 -3 -62 -46 5 -20 13 -25 36 -25 28 0 30 -2 30 -40
l0 -40 -43 0 c-75 0 -105 51 -95 161 7 67 30 91 91 91 25 0 55 -6 68 -12 20
-11 25 -10 41 10 25 30 23 35 -16 54 -50 24 -115 28 -159 12z"/>
<path d="M1427 999 c-11 -43 0 -49 91 -49 l86 0 -25 -27 c-28 -32 -93 -118
-133 -178 -15 -22 -26 -54 -26 -72 l0 -33 129 0 c138 0 156 6 149 52 -3 22 -6
22 -90 19 -49 -1 -88 -1 -88 2 0 3 38 56 85 118 47 63 85 124 85 136 0 51 -4
53 -135 53 -116 0 -123 -1 -128 -21z"/>
<path d="M2140 827 l0 -194 47 1 47 1 -1 190 -1 190 -46 3 -46 3 0 -194z"/>
<path d="M2320 842 c0 -125 4 -182 12 -190 16 -16 200 -16 216 0 7 7 12 22 12
35 0 22 -3 23 -75 23 l-75 0 0 139 c0 154 -6 171 -61 171 l-29 0 0 -178z"/>
<path d="M2618 1013 c-2 -4 -4 -91 -3 -191 l0 -184 50 -3 c28 -2 76 -1 109 2
104 10 151 75 148 202 -2 73 -23 125 -65 155 -23 17 -47 22 -132 24 -56 2
-105 0 -107 -5z m188 -84 c15 -17 19 -37 19 -105 0 -98 -10 -114 -79 -121
l-46 -6 0 127 0 126 43 0 c32 0 49 -6 63 -21z"/>
<path d="M2990 830 c0 -188 0 -190 23 -195 12 -3 32 -4 45 -3 22 2 22 2 22
195 l0 193 -45 0 -45 0 0 -190z"/>
<path d="M602 956 l-33 -24 33 -19 c93 -55 249 -243 284 -341 7 -21 19 -36 26
-34 13 3 120 43 126 48 6 4 -67 140 -82 153 -9 8 -16 19 -17 25 -2 22 -147
143 -216 179 -39 20 -75 37 -79 37 -5 -1 -24 -11 -42 -24z"/>
<path d="M185 860 c-11 -4 -41 -17 -68 -29 l-47 -20 36 -68 c70 -130 179 -232
319 -299 79 -39 100 -41 134 -15 l23 18 -53 33 c-77 47 -182 152 -229 229 -56
90 -57 92 -70 129 -13 34 -15 35 -45 22z"/>
<path d="M529 760 c-9 -5 -22 -23 -29 -40 -36 -87 65 -158 136 -96 58 50 21
146 -55 146 -20 0 -43 -5 -52 -10z"/>
<path d="M780 609 c-52 -76 -182 -179 -291 -228 l-57 -26 24 -60 c13 -33 28
-63 33 -68 13 -13 108 37 180 96 76 61 177 189 186 234 5 29 -19 103 -34 103
-3 0 -22 -23 -41 -51z"/>
<path d="M1436 514 c-31 -31 -14 -64 41 -79 28 -8 38 -16 38 -30 0 -29 -50
-33 -67 -6 -16 26 -28 27 -28 1 0 -40 76 -54 110 -20 11 11 20 24 20 28 0 20
-29 44 -60 51 -26 5 -35 12 -35 26 0 26 44 34 57 11 11 -20 28 -21 28 -1 0 33
-76 47 -104 19z"/>
<path d="M1612 448 l3 -83 48 -3 c55 -3 65 15 10 20 l-38 3 -3 73 c-2 39 -7
72 -13 72 -6 0 -9 -32 -7 -82z"/>
<path d="M1790 510 c-45 -45 -14 -150 45 -150 65 0 108 55 86 113 -21 54 -93
75 -131 37z m96 -17 c31 -41 4 -113 -41 -113 -47 0 -72 74 -38 112 21 23 62
23 79 1z"/>
<path d="M2013 515 c-45 -32 -38 -120 12 -144 22 -10 36 -11 56 -4 19 8 31 7
38 0 8 -8 11 2 11 36 l0 47 -35 0 c-19 0 -35 -4 -35 -10 0 -5 11 -10 25 -10
28 0 30 -7 11 -32 -15 -20 -38 -23 -67 -8 -24 13 -26 81 -3 104 20 21 61 20
72 0 5 -9 15 -15 22 -12 21 7 -30 48 -60 48 -14 0 -35 -7 -47 -15z"/>
<path d="M2244 513 c-3 -10 -17 -45 -30 -78 -27 -67 -28 -75 -14 -75 6 0 15
11 20 25 8 20 16 25 44 25 28 0 35 -4 40 -25 6 -25 27 -35 25 -12 -1 26 -55
151 -67 155 -6 2 -15 -5 -18 -15z m35 -70 c1 -7 -8 -13 -19 -13 -23 0 -23 0
-9 37 10 26 12 27 19 8 5 -11 9 -26 9 -32z"/>
<path d="M2390 445 c0 -101 18 -115 22 -18 l3 68 40 -67 c22 -37 46 -68 53
-68 9 0 12 24 12 85 0 50 -4 85 -10 85 -6 0 -10 -29 -10 -67 l0 -68 -27 45
c-29 50 -62 90 -75 90 -4 0 -8 -38 -8 -85z"/>
<path d="M2680 520 c0 -5 11 -10 25 -10 21 0 25 -5 26 -30 3 -92 5 -110 14
-112 6 -2 11 28 13 70 3 69 4 72 27 72 14 0 25 5 25 10 0 6 -28 10 -65 10 -37
0 -65 -4 -65 -10z"/>
<path d="M2870 447 l0 -84 60 -2 c37 -1 60 2 60 8 0 6 -20 11 -45 11 -43 0
-45 1 -45 30 0 29 2 30 46 30 27 0 43 4 39 10 -3 6 -24 10 -46 10 -35 0 -39 3
-39 25 0 23 4 25 45 25 25 0 45 5 45 10 0 6 -27 10 -60 10 l-60 0 0 -83z"/>
<path d="M3062 508 c44 -67 43 -63 15 -100 -35 -45 -21 -59 15 -16 28 32 28
33 43 13 26 -36 37 -46 42 -41 3 3 -5 23 -19 43 l-25 38 25 38 c28 41 21 65
-8 29 -10 -12 -21 -28 -23 -35 -3 -7 -15 0 -32 21 -30 36 -55 44 -33 10z"/>
<path d="M3235 520 c3 -5 17 -10 31 -10 23 0 24 -2 24 -75 0 -43 4 -75 10 -75
6 0 10 32 10 75 l0 75 31 0 c17 0 28 4 24 10 -3 6 -35 10 -71 10 -41 0 -63 -4
-59 -10z"/>
</g>
</svg>